 <!--?lit$578617757$--><svg rpl="" fill="currentColor" height="20" icon-name="answers-outline" viewBox="0 0 20 20" width="20" xmlns="http://www.w3.org/2000/svg"> <!--?lit$578617757$--><!--?lit$578617757$--><path d="m18.69 11.25-4.34-7.52c-.86-1.48-2.33-2.4-4.04-2.5-1.92-.12-3.71.84-4.67 2.5L1.3 11.25c-.87 1.51-.9 3.33-.09 4.86a5.02 5.02 0 0 0 4.44 2.68h8.68c1.82 0 3.45-.94 4.35-2.51.91-1.57.91-3.45 0-5.03h.01Zm-8.45-8.78c1.28.08 2.39.77 3.03 1.88l2.74 4.74c-.22-.08-.45-.14-.68-.18a5.014 5.014 0 0 0-3.44.58c-1.14.66-2.56.67-3.73.02-.01 0-.02-.02-.03-.02h-.01a3.857 3.857 0 0 1-1.7-2.06c-.3-.86-.27-1.79.05-2.61l.27-.46a3.759 3.759 0 0 1 3.27-1.89h.24-.01ZM2.32 15.52c-.61-1.15-.59-2.52.07-3.65l2.73-4.74c.04.23.11.46.18.68.41 1.15 1.17 2.08 2.22 2.68.02 0 .03.01.05.02 1.13.68 1.84 1.91 1.84 3.25 0 .92-.32 1.78-.93 2.5-.6.7-1.43 1.14-2.32 1.27h-.51a3.73 3.73 0 0 1-3.34-2.01h.01Zm15.29.13a3.747 3.747 0 0 1-3.27 1.89H8.86c.18-.16.36-.32.51-.51.79-.93 1.21-2.05 1.21-3.26 0-1.34.72-2.59 1.9-3.27.79-.46 1.7-.61 2.63-.44.89.17 1.68.66 2.23 1.35l.27.46c.68 1.18.68 2.59 0 3.78Z"></path><!--?--> </svg> 
