<svg rpl="" fill="currentColor" height="16" icon-name="bold-outline" viewBox="0 0 20 20" width="16" xmlns="http://www.w3.org/2000/svg"> <!--?lit$671017777$--><!--?lit$671017777$--><path d="M14.79 10.95c.552.697.837 1.569.803 2.458a4.306 4.306 0 0 1-.678 2.394 4.498 4.498 0 0 1-1.883 1.623 6.334 6.334 0 0 1-2.758.575H5.98A1.98 1.98 0 0 1 4 16.02V3.98A1.98 1.98 0 0 1 5.98 2h3.024a7.19 7.19 0 0 1 2.86.52 4.248 4.248 0 0 1 1.856 1.444c.43.613.656 1.346.646 2.095.001.683-.165 1.356-.483 1.96a4.348 4.348 0 0 1-1.275 1.513c.849.252 1.607.744 2.182 1.417ZM7 4.735v3.95h2.243a2.066 2.066 0 0 0 1.536-.564 2.024 2.024 0 0 0 .559-1.487 1.686 1.686 0 0 0-.619-1.422 2.692 2.692 0 0 0-1.682-.477H7Zm3.187 10.528a2.437 2.437 0 0 0 1.683-.57 1.938 1.938 0 0 0 .64-1.524 1.841 1.841 0 0 0-.684-1.53 2.87 2.87 0 0 0-1.834-.544H7v4.169h3.187Z"></path><!--?--> </svg>