<svg rpl="" fill="currentColor" height="16" icon-name="list-bulleted-outline" viewBox="0 0 20 20" width="16" xmlns="http://www.w3.org/2000/svg"> <!--?lit$395181984$--><!--?lit$395181984$--><path d="M18.034 10.75H7.435a.772.772 0 0 1-.75-.75c0-.398.352-.75.75-.75h10.599c.398 0 .75.352.75.75s-.352.75-.75.75Zm.742-6.8a.772.772 0 0 0-.75-.75H7.436a.772.772 0 0 0-.75.75c0 .398.351.75.75.75h10.59c.398 0 .75-.352.75-.75Zm.074 12.087a.772.772 0 0 0-.75-.75H7.501a.772.772 0 0 0-.75.75c0 .398.352.75.75.75H18.1c.398 0 .75-.352.75-.75ZM3 2.5c-.817 0-1.5.685-1.5 1.5S2.185 5.5 3 5.5 4.5 4.818 4.5 4c0-.817-.683-1.5-1.5-1.5Zm0 6c-.817 0-1.5.685-1.5 1.5 0 .812.693 1.5 1.5 1.5.806 0 1.5-.686 1.5-1.5 0-.817-.683-1.5-1.5-1.5Zm0 6.038c-.817 0-1.5.684-1.5 1.499 0 .815.685 1.5 1.5 1.5s1.5-.682 1.5-1.5c0-.816-.683-1.5-1.5-1.5Z"></path><!--?--> </svg>