<svg rpl="" fill="currentColor" height="16" icon-name="code-block-outline" viewBox="0 0 20 20" width="16" xmlns="http://www.w3.org/2000/svg"> <!--?lit$811327776$--><!--?lit$811327776$--><path d="M18 4.746v10.508A2.749 2.749 0 0 1 15.253 18H4.746A2.749 2.749 0 0 1 2 15.254V10h1.5v5.253A1.247 1.247 0 0 0 4.746 16.5h10.507a1.247 1.247 0 0 0 1.247-1.246V4.746A1.247 1.247 0 0 0 15.253 3.5H10V2h5.253A2.75 2.75 0 0 1 18 4.746ZM7.65 7.651a.75.75 0 0 0-1.06-1.06 2.304 2.304 0 0 1-3.182 0 2.25 2.25 0 0 1 0-3.182 2.304 2.304 0 0 1 3.182 0 .757.757 0 0 0 .532.226.757.757 0 0 0 .534-.22c.14-.14.22-.336.22-.534a.757.757 0 0 0-.226-.532 3.84 3.84 0 0 0-5.303 0A3.75 3.75 0 1 0 7.651 7.65Z"></path><!--?--> </svg>