<svg rpl="" fill="currentColor" height="16" icon-name="code-inline-outline" viewBox="0 0 20 20" width="16" xmlns="http://www.w3.org/2000/svg"> <!--?lit$811327776$--><!--?lit$811327776$--><path d="M5.232 17.84.4 10.96a1.676 1.676 0 0 1 0-1.921l4.832-6.88a.772.772 0 0 1 1.034-.17c.321.226.41.705.193 1.031L1.627 9.9a.178.178 0 0 0 0 .2l4.832 6.88a.76.76 0 0 1-.224 1.07.76.76 0 0 1-1.003-.21Zm8.044-4.92a.772.772 0 0 0-.013-1.046.772.772 0 0 0-1.047-.013 2.693 2.693 0 0 1-3.72 0 2.631 2.631 0 0 1 0-3.721 2.693 2.693 0 0 1 3.72 0 .757.757 0 0 0 1.074.014.757.757 0 0 0-.013-1.074 4.13 4.13 0 1 0 0 5.84Zm1.49 4.925 4.83-6.876a1.688 1.688 0 0 0 0-1.937l-4.83-6.877a.771.771 0 0 0-1.034-.168.771.771 0 0 0-.194 1.03l4.83 6.877a.187.187 0 0 1 0 .212l-4.83 6.877a.758.758 0 0 0 .172 1.06.76.76 0 0 0 1.056-.198Z"></path><!--?--> </svg>