<svg rpl="" fill="currentColor" height="16" icon-name="format-outline" viewBox="0 0 20 20" width="16" xmlns="http://www.w3.org/2000/svg"> <!--?lit$671017777$--><!--?lit$671017777$--><path d="M10.578 16.925 6.764 4.818a1.133 1.133 0 0 0-1.766-.568c-.197.147-.341.353-.412.588L.994 16.989a.848.848 0 0 0 .541 1.016.834.834 0 0 0 1.037-.563l.963-3.453h4.36l1.021 3.444c.135.45.62.714 1.07.59a.878.878 0 0 0 .592-1.098Zm-3.183-4.646h-3.39c.588-2.04 1.12-4.17 1.649-6.17.518 2.032 1.146 4.12 1.74 6.17Zm5.358 5.3a2.447 2.447 0 0 1-1.408-2.28 2.424 2.424 0 0 1 1.01-2.04 4.882 4.882 0 0 1 2.965-.761h2.091c0-.35.012-.681-.104-1.02a2.106 2.106 0 0 0-.457-.76 2.584 2.584 0 0 0-1.755-.501 5.954 5.954 0 0 0-1.167.103 9.997 9.997 0 0 0-1.132.311c-.33.094-.682-.038-.817-.369-.143-.35.04-.785.403-.91a7.606 7.606 0 0 1 2.99-.622 3.904 3.904 0 0 1 2.014.484c.517.291.937.727 1.21 1.253.26.518.393 1.09.389 1.669v4.89a.743.743 0 0 1-.234.553.788.788 0 0 1-.562.225.775.775 0 0 1-.552-.225.775.775 0 0 1-.225-.553v-.45a4.34 4.34 0 0 1-3.25 1.314 3.208 3.208 0 0 1-1.41-.31Zm3.465-1.442a4.083 4.083 0 0 0 1.193-.925v-1.453h-1.884c-1.74 0-2.61.456-2.61 1.366a1.284 1.284 0 0 0 .424 1.003c.408.291.908.426 1.408.38a3.127 3.127 0 0 0 1.47-.371Z"></path><!--?--> </svg>