<svg rpl="" fill="currentColor" height="16" icon-name="text-size-outline" viewBox="0 0 20 20" width="16" xmlns="http://www.w3.org/2000/svg"> <!--?lit$811327776$--><!--?lit$811327776$--><path d="M8.587 11.75a.8.8 0 0 1-.83.75h-1.58v4.67c0 .4-.354.754-.754.754a.777.777 0 0 1-.755-.755V12.5H3.242a.761.761 0 0 1-.83-.75c0-.44.393-.794.83-.75h4.515a.8.8 0 0 1 .83.75Zm9.607-9.692H7.805A.813.813 0 0 0 7 2.864c0 .438.367.805.805.805h4.39v13.466c0 .44.366.806.805.806a.814.814 0 0 0 .805-.805V3.668h4.39A.814.814 0 0 0 19 2.864a.813.813 0 0 0-.806-.806Z"></path><!--?--> </svg>