<svg rpl="" fill="currentColor" height="16" icon-name="italic-outline" viewBox="0 0 20 20" width="16" xmlns="http://www.w3.org/2000/svg"> <!--?lit$671017777$--><!--?lit$671017777$--><path d="M10.258 17.888c-.571.249-1.23-.097-1.622-.517a2.191 2.191 0 0 1-.545-1.55 5.8 5.8 0 0 1 .109-1.004l1.51-7.646a.947.947 0 0 1 1.32-.666.946.946 0 0 1 .518 1.029l-1.515 7.677c-.042.204-.043.423.047.612.163.345.556.457.694.842.177.493-.032 1.011-.516 1.223Zm.479-13.208a1.432 1.432 0 0 1-.513-.512 1.43 1.43 0 0 1 0-1.43c.124-.212.3-.389.513-.513a1.426 1.426 0 0 1 1.942.52 1.412 1.412 0 0 1-.518 1.935 1.42 1.42 0 0 1-1.424 0Z"></path><!--?--> </svg>