<svg rpl="" fill="currentColor" height="16" icon-name="link-outline" viewBox="0 0 20 20" width="16" xmlns="http://www.w3.org/2000/svg"> <!--?lit$811327776$--><!--?lit$811327776$--><path d="M9.678 12.627c-.327 0-.67-.01-.899-.28a.756.756 0 0 1-.175-.546.757.757 0 0 1 .81-.684 3.126 3.126 0 0 0 2.463-.9c.402-.402.78-.788 1.159-1.174.399-.406.797-.813 1.222-1.236A3.11 3.11 0 0 0 9.86 3.409c-.408.408-.792.8-1.176 1.19-.393.402-.786.802-1.205 1.22-.28.28-.503.61-.658.973a.757.757 0 0 1-.412.4.757.757 0 0 1-.574-.007.757.757 0 0 1-.4-.411.757.757 0 0 1 .007-.574c.23-.538.562-1.027.977-1.44.415-.415.805-.812 1.195-1.21.387-.394.774-.789 1.186-1.2a4.609 4.609 0 0 1 6.517 6.518c-.42.42-.816.823-1.212 1.226-.38.389-.763.778-1.168 1.184a4.602 4.602 0 0 1-3.26 1.349Zm1.48 5.027c.415-.415.805-.813 1.195-1.21.387-.394.774-.788 1.185-1.2.415-.413.747-.902.978-1.44a.75.75 0 0 0-1.378-.591 3.075 3.075 0 0 1-.66.972c-.414.415-.804.813-1.195 1.21-.387.394-.774.788-1.185 1.2A3.11 3.11 0 0 1 5.7 12.198c.42-.421.817-.824 1.213-1.228.381-.389.762-.778 1.167-1.183a3.118 3.118 0 0 1 2.463-.9.756.756 0 0 0 .546-.175.756.756 0 0 0 .263-.51.756.756 0 0 0-.174-.545.756.756 0 0 0-.51-.263A4.614 4.614 0 0 0 7.02 8.726c-.409.409-.793.801-1.177 1.193-.393.4-.785.8-1.203 1.218a4.608 4.608 0 0 0 6.517 6.517Z"></path><!--?--> </svg>