<svg rpl="" fill="currentColor" height="16" icon-name="list-numbered-outline" viewBox="0 0 20 20" width="16" xmlns="http://www.w3.org/2000/svg"> <!--?lit$811327776$--><!--?lit$811327776$--><path d="M18.034 10.75H7.435a.772.772 0 0 1-.75-.75c0-.398.352-.75.75-.75h10.599c.398 0 .75.352.75.75s-.352.75-.75.75Zm.742-6.8a.772.772 0 0 0-.75-.75H7.436a.772.772 0 0 0-.75.75c0 .398.351.75.75.75h10.59c.398 0 .75-.352.75-.75Zm.074 12.087a.772.772 0 0 0-.75-.75H7.501a.772.772 0 0 0-.75.75c0 .398.352.75.75.75h10.6c.397 0 .75-.352.75-.75ZM1.823 12.001h2.962v-.848H3.05c.058-.158.223-.353.724-.635.807-.434.988-.871.988-1.316C4.761 8.47 4.316 8 3.387 8a1.757 1.757 0 0 0-1.572.954l.716.518a1.066 1.066 0 0 1 .83-.593c.247 0 .388.124.388.346 0 .33-.173.413-.773.783-1.046.633-1.153 1.209-1.153 1.777v.215Zm1.485 6.037c.939 0 1.554-.43 1.554-1.24a.873.873 0 0 0-.696-.89.816.816 0 0 0 .575-.818c0-.656-.47-1.052-1.353-1.052a2.152 2.152 0 0 0-1.513.607l.551.64a1.24 1.24 0 0 1 .882-.39c.268 0 .413.122.413.317 0 .235-.155.38-.673.38h-.323v.722h.307c.534 0 .761.13.761.462 0 .242-.145.419-.575.419a1.053 1.053 0 0 1-.849-.501l-.631.551a1.832 1.832 0 0 0 1.57.793ZM4.06 2.403v3.195a.54.54 0 0 1-.525.511.54.54 0 0 1-.525-.51V3.043l-.42.242c-.217.1-.496 0-.599-.214a.465.465 0 0 1 .207-.6l1.162-.559a.507.507 0 0 1 .376.005.53.53 0 0 1 .324.485Z"></path><!--?--> </svg>