<svg rpl="" fill="currentColor" height="16" icon-name="strikethrough-outline" viewBox="0 0 20 20" width="16" xmlns="http://www.w3.org/2000/svg"> <!--?lit$811327776$--><!--?lit$811327776$--><path d="M5.868 7.62A4.175 4.175 0 0 1 5.53 5.93a3.883 3.883 0 0 1 .542-2.066 3.643 3.643 0 0 1 1.525-1.376A5.026 5.026 0 0 1 9.866 2a4.902 4.902 0 0 1 2.836.792c.391.264.744.581 1.048.942a.932.932 0 0 1-.11 1.306.932.932 0 0 1-1.305-.122 4.001 4.001 0 0 0-.722-.655 2.889 2.889 0 0 0-1.726-.52 2.919 2.919 0 0 0-1.243.26c-.367.166-.68.43-.904.765a2.109 2.109 0 0 0-.34 1.206c-.013.512.15 1.013.462 1.419.066.084.146.15.218.226H5.868ZM18 9H2a.772.772 0 0 0-.75.75c0 .398.352.75.75.75h7.586l.152.053c.517.178 1.023.387 1.514.627.462.234.873.558 1.211.95.366.418.562.959.547 1.514.006.478-.133.946-.398 1.344-.265.4-.632.723-1.063.936a3.137 3.137 0 0 1-1.429.334 3.087 3.087 0 0 1-1.455-.35 3.527 3.527 0 0 1-1.137-.935 4.208 4.208 0 0 1-.363-.532c-.314-.571-1.13-.626-1.559-.147a.94.94 0 0 0-.085 1.132A5.586 5.586 0 0 0 7.895 17.5c.702.332 1.47.503 2.247.5a5.077 5.077 0 0 0 2.342-.558 4.447 4.447 0 0 0 1.743-1.573c.439-.69.666-1.492.653-2.31.032-.858-.24-1.7-.77-2.375a6.12 6.12 0 0 0-.654-.684H18c.398 0 .75-.353.75-.75A.772.772 0 0 0 18 9Z"></path><!--?--> </svg>